PathFileType	4	(X/Y/Z)	c:\Git\powerlifing_model_clean\simulations\HC835B\Session1\HC835B_OGR_0001\marker_experimental.trc
DataRate	CameraRate	NumFrames	NumMarkers	Units	OrigDataRate	OrigDataStartFrame	OrigNumFrames
240.000000	240.000000	4	38	mm	240.000000	133	213
Frame#	Time	RPSI			LPSI			RASI			LASI			RTH1			RTH2			RTH3			RTH4			RSK1			RSK2			RSK3			RSK4			RCAL1			RCAL2			RCAL3			RST			RPT			RTN			RFMB			RSMB			RVMB			RFMH			RSMH			RVMH			RPM			LTH1			LTH2			LTH3			LTH4			LSK1			LSK2			LSK3			LSK4			LCAL1			LCAL2			LCAL3			LFMH			LVMH			
		X1	Y1	Z1	X2	Y2	Z2	X3	Y3	Z3	X4	Y4	Z4	X5	Y5	Z5	X6	Y6	Z6	X7	Y7	Z7	X8	Y8	Z8	X9	Y9	Z9	X10	Y10	Z10	X11	Y11	Z11	X12	Y12	Z12	X13	Y13	Z13	X14	Y14	Z14	X15	Y15	Z15	X16	Y16	Z16	X17	Y17	Z17	X18	Y18	Z18	X19	Y19	Z19	X20	Y20	Z20	X21	Y21	Z21	X22	Y22	Z22	X23	Y23	Z23	X24	Y24	Z24	X25	Y25	Z25	X26	Y26	Z26	X27	Y27	Z27	X28	Y28	Z28	X29	Y29	Z29	X30	Y30	Z30	X31	Y31	Z31	X32	Y32	Z32	X33	Y33	Z33	X34	Y34	Z34	X35	Y35	Z35	X36	Y36	Z36	X37	Y37	Z37	X38	Y38	Z38	

134	0.5541666666666667	524.8626708984376	1084.884765625	-1462.525756835938	421.606903076172	1092.759033203125	-1454.128173828125	577.3642578125001	994.9614868164065	-1657.955200195313	324.7186584472657	1003.54052734375	-1641.783935546875	649.8192749023439	738.7564697265626	-1642.081420898438	632.1683959960939	738.2017211914064	-1700.171752929688	637.6369628906251	663.0419311523439	-1677.87109375	610.7265014648439	661.1724243164064	-1730.133422851563	613.7659301757814	523.5914306640626	-1418.372680664063	616.1535034179689	462.3070068359376	-1412.443237304688	613.8096313476564	500.2223205566407	-1364.670654296875	603.0945434570314	441.370330810547	-1358.867797851563	564.0661621093751	542.3125610351564	-1232.940307617188	525.0787353515626	541.9066772460939	-1202.349365234375	588.1491699218751	546.6437988281251	-1190.640258789063	515.5668945312501	469.5323486328126	-1206.093994140625	613.4458007812501	487.2173156738282	-1185.05224609375	533.0370483398439	413.3669738769532	-1210.98583984375	531.0559692382814	387.0618591308595	-1185.899780273438	583.7721557617189	373.2309875488282	-1198.506591796875	618.5894775390626	449.7657470703126	-1149.252075195313	522.4471435546876	339.9381103515626	-1144.153198242188	577.0148315429689	325.4068298339844	-1147.725830078125	628.0496826171876	375.1260986328126	-1121.930419921875	566.8706054687501	272.3188781738282	-1133.298461914063	270.3784179687501	748.0756225585939	-1604.096069335938	265.4402160644532	748.7485961914064	-1664.6181640625	277.5620727539063	671.3546142578126	-1642.68505859375	287.9835815429688	674.8040771484376	-1703.680297851563	346.2254333496094	271.6380920410157	-1526.334228515625	349.6619262695313	234.9680328369141	-1566.216064453125	356.2902221679688	215.9301452636719	-1520.895874023438	374.8700561523438	183.321044921875	-1563.926513671875	428.7606506347657	92.33346557617189	-1403.328369140625	396.4219055175782	56.11546707153322	-1401.244384765625	454.7517395019532	52.47570419311525	-1403.920166015625	472.0987243652345	44.47177505493165	-1629.243286132813	356.8778686523438	30.92286682128907	-1589.723754882813	
135	0.5583333333333333	523.9348144531251	1085.474975585938	-1475.702270507813	421.0449829101564	1093.231567382813	-1467.57958984375	577.8099365234376	997.8221435546877	-1671.6298828125	325.7480773925782	1003.755676269531	-1655.037353515625	650.0816040039064	741.5394897460939	-1660.109985351563	632.7595825195314	741.9899291992189	-1718.251708984375	638.2813720703126	666.5437622070314	-1697.376953125	611.5160522460939	665.6707153320314	-1749.736083984375	613.9082031250001	522.0430908203126	-1440.871704101563	615.5556640625001	460.6985778808595	-1435.993774414063	613.4102172851564	497.7831420898439	-1387.594116210938	602.0252685546876	438.8831481933595	-1382.784790039063	563.0524902343751	537.9280395507814	-1254.4990234375	523.9501342773439	537.0034790039064	-1223.9990234375	587.0770874023439	541.1961669921876	-1212.068603515625	514.1962890625001	464.9451599121095	-1229.489990234375	612.1701660156251	481.6091613769532	-1207.931884765625	531.5896606445314	408.5776672363282	-1235.900146484375	529.4263305664064	381.6851501464844	-1211.485717773438	582.0897216796876	368.0129089355469	-1224.1474609375	616.9865112304689	443.1655883789064	-1172.90673828125	520.3588867187501	333.8696899414063	-1170.415161132813	575.0674438476564	319.0281066894532	-1174.631225585938	626.2006835937501	367.9344787597657	-1147.533569335938	564.4809570312501	265.5073242187501	-1161.496459960938	270.2205505371094	747.7287597656251	-1614.305908203125	265.7922973632813	747.5092163085939	-1674.890869140625	277.3542175292969	670.4965820312501	-1651.583251953125	288.3658447265626	672.7149658203126	-1712.33203125	346.2723999023438	271.6693420410157	-1528.87158203125	349.5885620117188	234.7854003906251	-1568.044311523438	356.3851623535157	215.9544219970704	-1522.65087890625	374.9648742675782	182.9780578613282	-1565.271118164063	428.7543945312501	93.16036224365236	-1403.722900390625	396.5577697753907	56.9453468322754	-1401.391479492188	454.8440246582032	53.38817214965822	-1404.162841796875	472.1773376464845	44.41503524780274	-1629.419189453125	356.9677124023438	30.90720176696778	-1589.727783203125	
136	0.5625	523.1964111328126	1086.483154296875	-1488.939086914063	420.5753479003907	1093.9638671875	-1481.066284179688	577.9746093750001	1001.11767578125	-1685.3740234375	325.5406799316407	1004.959411621094	-1667.754150390625	650.4141845703126	744.8009033203126	-1677.96484375	633.1306152343751	746.3334960937501	-1736.1494140625	638.8553466796876	670.5217895507814	-1716.714599609375	612.2075805664064	670.4647216796876	-1769.1015625	613.9622802734376	520.4903564453126	-1463.188720703125	614.9661865234376	459.0077514648439	-1459.453735351563	612.9703979492189	495.2244873046876	-1410.39111328125	600.9913940429689	436.3610229492189	-1406.708740234375	561.9846801757814	533.2355346679689	-1276.024536132813	522.7990112304689	531.6430664062501	-1245.63916015625	585.6638793945314	535.2600097656251	-1233.204711914063	512.8562011718751	459.741180419922	-1252.947143554688	610.7938842773439	475.5535278320314	-1230.801635742188	530.0628662109376	403.501190185547	-1260.843505859375	527.6241455078126	376.1656799316407	-1236.885864257813	580.4094238281251	362.6817321777344	-1250.031127929688	615.4067382812501	436.1738586425782	-1196.739868164063	518.3296508789064	327.3598022460938	-1197.053833007813	573.1436157226564	312.2890319824219	-1201.78466796875	624.3112792968751	360.2734375000001	-1173.305786132813	562.4204711914064	258.5457458496094	-1190.126831054688	270.0711364746094	747.5577392578126	-1624.292114257813	266.0961608886719	746.3120117187501	-1684.814086914063	277.2868652343751	669.7379150390626	-1660.157348632813	288.9891967773438	670.9086914062501	-1720.938232421875	346.2177429199219	271.8826599121094	-1531.240356445313	349.5252075195313	234.5263824462891	-1570.161376953125	356.2511596679688	216.3639373779297	-1524.5234375	374.6664428710938	182.8485107421875	-1566.701538085938	428.4374389648439	94.07820129394533	-1404.105224609375	396.4075622558595	57.77548217773439	-1401.646850585938	454.7041931152345	54.41135787963869	-1404.477172851563	472.1438598632814	44.38414764404298	-1629.515014648438	356.9746704101563	30.85485839843751	-1589.764282226563	
137	0.5666666666666667	522.4711303710939	1087.679931640625	-1502.458129882813	420.0578918457032	1095.00048828125	-1494.701049804688	577.8050537109376	1004.509887695313	-1699.23779296875	325.5650024414063	1005.552734375	-1681.214965820313	650.3965454101564	748.4505004882814	-1695.453979492188	633.8776245117189	751.0308837890626	-1753.797241210938	639.3563232421876	674.7481689453126	-1735.77294921875	612.8492431640626	675.7154541015626	-1788.18408203125	613.9248046875001	518.8725585937501	-1485.3330078125	614.3154907226564	457.3368530273439	-1482.835205078125	612.4676513671876	492.583221435547	-1433.094848632813	599.8988647460939	433.7169799804689	-1430.602661132813	560.7259521484376	528.1599731445314	-1297.3974609375	521.4597167968751	525.8619384765626	-1267.08447265625	584.4102783203126	528.9146118164064	-1254.540283203125	511.3446655273439	454.3061523437501	-1276.34033203125	609.3133544921876	469.0976867675782	-1253.701782226563	528.4521484375001	398.1109619140626	-1285.713989257813	525.8472290039064	370.2579650878907	-1262.605590820313	578.7005004882814	356.8908691406251	-1276.065185546875	613.8052978515626	428.8018493652345	-1220.727416992188	517.2333374023439	320.4379882812501	-1224.91796875	571.1687011718751	305.2432861328126	-1229.238647460938	622.4287109375001	352.2754821777344	-1199.416748046875	560.2614135742189	251.3529815673829	-1219.0263671875	270.0747070312501	747.5627441406251	-1633.915771484375	266.4067687988282	745.3518066406251	-1694.425415039063	277.2474060058594	669.1928100585939	-1668.52197265625	289.6443786621094	669.3908691406251	-1729.183471679688	346.0320129394532	272.2968750000001	-1533.59521484375	349.2722778320313	234.4987945556641	-1572.061767578125	356.0700073242188	216.8588256835938	-1526.244995117188	374.4544677734376	182.9010009765625	-1568.151000976563	427.7959289550782	95.13246917724611	-1404.489990234375	396.113983154297	58.60879135131837	-1401.933959960938	454.4502868652345	55.68628311157228	-1404.717529296875	472.0818176269532	44.3903923034668	-1629.593994140625	356.9447021484376	30.76492881774903	-1589.8203125	
